<?xml version="1.0" standalone="no"?>
<!DOCTYPE svg PUBLIC "-//W3C//DTD SVG 20010904//EN"
 "http://www.w3.org/TR/2001/REC-SVG-20010904/DTD/svg10.dtd">
<svg version="1.0" xmlns="http://www.w3.org/2000/svg"
 width="275.000000pt" height="183.000000pt" viewBox="0 0 275.000000 183.000000"
 preserveAspectRatio="xMidYMid meet">

<g transform="translate(0.000000,183.000000) scale(0.100000,-0.100000)"
fill="#000000" stroke="none">
<path d="M0 915 l0 -915 1375 0 1375 0 0 285 c0 262 -4 309 -25 275 -3 -6 -13
-10 -21 -10 -8 0 -12 5 -9 10 7 11 -2 13 -57 14 -26 1 -38 -3 -38 -13 0 -8 7
-11 20 -8 26 7 25 0 -2 -23 -22 -18 -24 -18 -56 2 -18 11 -36 18 -39 14 -3 -3
-13 0 -21 6 -11 10 -16 9 -23 -5 -14 -24 -74 -22 -101 3 -13 12 -29 18 -40 14
-16 -5 -18 -2 -12 22 5 18 3 25 -4 20 -6 -3 -18 1 -27 11 -10 9 -26 18 -37 18
-11 1 -23 7 -26 12 -4 6 -18 13 -32 14 -14 2 -25 9 -25 14 0 14 64 19 79 6 10
-9 13 -5 12 19 -1 31 -13 40 -21 18 -3 -8 -25 -13 -58 -13 -41 0 -52 3 -51 16
1 11 -5 14 -21 11 -13 -2 -24 2 -28 10 -3 10 12 22 48 39 44 20 53 28 53 49 0
14 2 34 5 45 3 11 6 22 6 25 2 9 61 6 61 -3 0 -5 -7 -7 -15 -3 -20 7 -19 -8 1
-25 9 -7 20 -22 24 -34 8 -18 9 -17 9 8 1 15 -4 27 -11 27 -9 0 -8 4 2 10 8 5
39 10 68 10 39 0 57 -5 72 -20 12 -12 25 -18 31 -15 5 4 9 3 8 -2 -4 -24 4
-33 30 -33 16 0 36 -6 43 -13 14 -14 98 -18 98 -5 0 5 -4 8 -10 8 -5 0 -10 5
-10 10 0 11 24 22 74 34 26 6 28 6 16 -9 -7 -9 -19 -14 -27 -11 -8 3 -11 1 -8
-4 3 -6 0 -10 -8 -10 -16 0 -19 -32 -3 -43 6 -4 27 -12 47 -17 24 -7 36 -16
35 -27 0 -8 5 -18 12 -20 20 -7 15 64 -5 77 -17 11 -17 11 0 6 17 -5 18 8 17
232 -1 206 -4 239 -18 255 -15 17 -15 19 1 28 15 9 17 31 17 213 l0 203 -45
32 c-59 42 -59 51 0 11 l45 -31 0 45 0 45 -276 1 c-218 0 -274 -2 -270 -12 3
-7 9 -21 12 -30 4 -10 10 -18 14 -18 9 0 35 -79 27 -86 -10 -10 -57 28 -57 47
0 22 -66 89 -89 90 -9 0 -24 2 -34 4 -10 2 -27 -6 -38 -18 -20 -21 -21 -21
-17 -2 3 19 -3 20 -84 23 l-88 3 0 -27 c0 -18 -4 -25 -14 -21 -7 3 -19 0 -26
-6 -10 -9 -12 -9 -7 4 3 9 -3 20 -14 28 -25 15 -72 -6 -119 -54 l-32 -33 21
-31 22 -31 -26 10 c-38 15 -43 13 -60 -20 -19 -36 -19 -61 -1 -86 12 -15 17
-17 27 -6 19 18 36 15 42 -9 5 -18 8 -19 27 -7 14 9 23 10 28 2 10 -15 51 -24
58 -13 7 12 24 11 24 -2 0 -18 28 -40 52 -42 13 0 35 -13 51 -29 33 -34 49
-36 41 -4 -5 23 -5 23 30 12 32 -10 36 -15 36 -43 0 -29 3 -33 28 -34 23 0 24
-2 7 -8 -19 -8 -19 -8 2 -19 12 -7 29 -12 37 -12 9 0 16 -4 16 -8 0 -5 19 -12
43 -18 47 -10 62 -41 17 -36 -20 2 -22 1 -10 -7 12 -9 11 -11 -7 -11 -12 0
-39 18 -63 42 -32 33 -43 39 -50 29 -10 -18 -69 -17 -87 1 -11 12 -9 14 14 13
18 0 29 6 31 17 2 13 -7 17 -55 20 -50 4 -66 0 -113 -25 -50 -27 -97 -55 -110
-65 -3 -2 6 -12 20 -23 l25 -19 -22 -6 c-27 -7 -27 -5 -8 -51 8 -19 15 -37 15
-38 0 -2 -13 -8 -30 -14 -16 -5 -30 -15 -30 -22 0 -8 -5 -7 -17 2 -15 12 -16
12 -10 -4 4 -10 7 -26 7 -35 1 -15 2 -15 11 1 8 14 18 17 40 12 23 -5 28 -3
24 8 -3 7 1 20 10 27 13 11 15 10 10 -1 -3 -8 4 -20 15 -27 17 -10 21 -10 25
1 6 14 48 16 53 1 2 -5 -7 -11 -19 -14 -12 -3 -26 -15 -30 -28 -7 -18 -5 -22
11 -22 11 0 20 7 20 15 0 8 7 15 15 15 9 0 15 -9 15 -25 0 -22 2 -24 24 -13
14 6 30 23 36 39 7 16 17 26 25 23 7 -3 16 -1 20 5 3 6 -1 11 -10 11 -9 0 -13
5 -10 11 4 6 13 8 21 5 23 -9 53 16 65 54 7 19 18 44 25 55 13 18 14 17 14
-13 0 -36 -25 -92 -40 -92 -6 0 -18 -15 -27 -34 -8 -19 -27 -39 -41 -45 -13
-7 -22 -14 -19 -18 4 -3 18 2 31 11 41 26 55 12 55 -54 -1 -46 5 -69 26 -104
28 -47 42 -55 63 -34 9 9 12 8 12 -4 0 -9 -6 -19 -13 -22 -8 -4 -7 -5 3 -5 33
2 50 -1 50 -11 0 -5 -13 -10 -29 -10 -16 0 -31 -4 -33 -9 -1 -4 -14 -12 -27
-16 -22 -7 -23 -5 -17 20 9 34 -9 57 -38 50 -12 -3 -15 -2 -7 1 8 4 -15 16
-55 29 -38 12 -86 32 -107 45 -31 19 -52 22 -124 23 -70 0 -89 3 -105 19 -17
17 -17 18 0 18 14 0 17 11 19 65 l3 66 -38 -7 c-47 -9 -50 -11 -26 -30 18 -15
18 -15 -6 -10 -14 3 -29 6 -33 6 -5 0 -1 7 7 16 21 21 11 37 -15 24 -24 -14
-24 -40 0 -67 23 -25 17 -38 -7 -17 -32 28 -104 84 -108 84 -2 0 -3 -5 -1 -11
1 -6 -4 -14 -12 -17 -8 -2 -11 0 -7 6 3 6 1 14 -6 18 -7 4 -10 4 -6 -1 13 -14
-22 -37 -47 -31 -20 5 -23 3 -18 -10 5 -14 1 -15 -28 -9 -19 4 -35 11 -37 16
-2 5 -12 4 -23 -2 -14 -7 -18 -16 -14 -30 6 -17 -3 -24 -27 -20 -5 0 -8 -4 -8
-9 0 -16 -22 -12 -36 8 -12 16 -13 16 -14 0 0 -10 -9 -26 -21 -37 -12 -11 -18
-25 -14 -31 6 -9 9 -9 15 0 5 8 9 7 13 -4 5 -12 -1 -15 -29 -14 -46 2 -50 12
-17 42 15 14 22 26 15 26 -24 0 -12 18 20 29 22 8 34 8 38 1 4 -7 11 -6 20 4
7 9 16 13 21 10 5 -3 6 2 3 10 -8 21 -59 10 -100 -21 -17 -12 -39 -23 -50 -24
-11 0 -13 -3 -6 -6 16 -6 15 -34 -3 -60 -13 -19 -13 -23 6 -48 27 -33 18 -42
-48 -49 -47 -5 -53 -3 -53 14 0 10 11 27 25 38 l25 20 -25 20 c-14 11 -25 25
-25 31 0 7 -7 25 -15 41 -15 29 -15 30 10 30 14 0 25 5 25 10 0 6 7 10 15 10
8 0 15 5 15 10 0 6 9 10 20 10 16 0 20 7 20 30 0 33 14 39 29 13 8 -16 14 -16
41 -6 17 6 39 9 47 6 10 -4 14 -2 10 4 -10 16 35 24 73 13 37 -11 63 2 53 26
-4 10 3 14 23 14 22 0 25 3 16 12 -18 18 -15 30 6 26 22 -4 52 19 52 38 0 13
12 18 33 15 4 0 7 6 7 14 0 8 5 15 10 15 31 0 26 94 -7 113 -20 12 -15 29 7
22 14 -4 20 -2 20 9 0 8 -13 17 -30 21 -16 4 -30 10 -30 15 0 5 -3 15 -6 23
-7 20 62 32 100 17 35 -13 39 -9 38 32 0 18 3 37 7 43 4 5 13 28 20 50 16 48
84 150 109 164 12 7 -75 10 -284 11 l-301 0 -76 -52 c-42 -29 -95 -69 -119
-87 -36 -30 -39 -31 -18 -7 14 15 57 51 95 79 39 28 74 54 80 59 5 4 -228 8
-518 8 l-527 0 0 -915z m675 879 c16 -15 33 -27 39 -28 23 -4 43 -22 48 -43 8
-29 -28 -53 -80 -55 -59 -2 -82 15 -82 62 0 49 15 90 33 90 8 0 27 -12 42 -26z
m1030 -44 c3 -5 2 -10 -4 -10 -5 0 -13 5 -16 10 -3 6 -2 10 4 10 5 0 13 -4 16
-10z m87 -125 c2 -37 -1 -55 -8 -55 -7 0 -15 7 -18 16 -8 21 -8 79 1 87 15 16
21 4 25 -48z m98 13 c0 -5 -4 -8 -10 -8 -5 0 -10 10 -10 23 0 18 2 19 10 7 5
-8 10 -18 10 -22z m-1170 5 c0 -5 -5 -15 -10 -23 -8 -13 -13 -12 -32 8 l-22
22 32 0 c18 0 32 -3 32 -7z m1136 -48 c12 -8 24 -11 28 -7 10 9 26 -18 26 -44
0 -15 -8 -24 -26 -28 -15 -4 -28 -6 -29 -4 -11 12 -35 70 -35 83 0 19 10 19
36 0z m369 -14 c-42 -19 -81 -64 -70 -81 3 -6 -2 -10 -12 -10 -10 0 -29 -3
-42 -7 -19 -5 -15 2 20 37 53 52 97 80 124 80 13 0 5 -7 -20 -19z m30 -26
c-16 -13 -34 -24 -38 -25 -4 0 -15 -16 -23 -36 -19 -45 -5 -60 50 -54 10 1 15
-3 12 -8 -3 -6 0 -12 7 -15 8 -3 14 3 14 15 2 26 7 30 26 22 9 -3 17 -20 19
-42 2 -19 8 -37 15 -39 9 -3 11 6 7 33 -5 44 14 79 48 87 21 5 21 5 6 -7 -10
-7 -18 -19 -18 -27 0 -10 3 -10 12 -1 23 23 38 14 31 -18 -4 -23 -1 -34 12
-44 13 -9 15 -15 7 -20 -7 -4 -12 -3 -12 3 0 17 -51 -7 -85 -40 -30 -28 -31
-29 -48 -9 -19 22 -57 27 -58 8 0 -8 -3 -7 -6 2 -4 8 -23 32 -45 52 -37 37
-48 70 -28 83 6 4 8 15 5 24 -4 13 5 25 32 43 63 43 105 52 58 13z m-1564
-122 c-21 -43 -46 -102 -56 -130 -9 -29 -21 -53 -26 -53 -12 0 -12 -2 10 63
24 70 90 197 102 197 5 0 -8 -35 -30 -77z m1347 32 c-3 -3 -9 2 -12 12 -6 14
-5 15 5 6 7 -7 10 -15 7 -18z m-814 0 c4 -11 13 -14 33 -9 33 8 29 2 -14 -18
-27 -14 -31 -14 -26 -1 4 9 0 14 -8 13 -28 -4 -39 0 -39 15 0 20 46 20 54 0z
m157 -18 c-10 -9 -11 -8 -5 6 3 10 9 15 12 12 3 -3 0 -11 -7 -18z m747 -26 c7
-16 24 -41 37 -55 28 -30 30 -36 15 -36 -23 0 -80 67 -80 94 0 34 12 33 28 -3z
m-808 15 c0 -2 -11 -6 -25 -8 -14 -3 -25 -1 -25 3 0 5 11 9 25 9 14 0 25 -2
25 -4z m105 -35 c3 -5 1 -12 -5 -16 -5 -3 -10 1 -10 9 0 18 6 21 15 7z m-255
-58 c-1 -24 -18 -44 -57 -65 -40 -23 -40 -23 -35 11 4 27 6 29 39 24 26 -4 34
-2 33 8 -4 25 0 39 10 39 6 0 10 -8 10 -17z m-320 -28 c11 -13 10 -14 -4 -9
-9 3 -16 10 -16 15 0 13 6 11 20 -6z m-10 -25 c0 -5 -2 -10 -4 -10 -3 0 -8 5
-11 10 -3 6 -1 10 4 10 6 0 11 -4 11 -10z m-288 -12 c50 -27 126 -95 193 -175
l69 -83 30 28 c17 15 33 29 36 31 3 2 -1 6 -7 8 -21 8 -15 23 10 23 34 0 67
-11 67 -22 0 -6 -11 -8 -25 -6 -28 6 -28 8 -14 -51 10 -44 -2 -101 -21 -101
-5 0 5 -24 20 -52 55 -102 98 -221 93 -255 -6 -39 -17 -35 -42 15 -24 48 -37
107 -22 98 6 -4 11 -4 11 -1 0 12 -33 71 -49 86 -22 21 -73 82 -191 232 -56
70 -112 132 -124 137 -22 8 -55 40 -42 40 4 0 17 -5 29 -11 14 -7 8 4 -18 30
-41 43 -42 49 -3 29z m318 -13 c0 -9 -9 -15 -25 -15 -26 0 -34 15 -12 23 23
10 37 7 37 -8z m1645 -36 c-4 -5 -12 -9 -18 -8 -9 0 -8 2 1 6 6 2 9 10 6 15
-4 7 -2 8 5 4 6 -4 9 -12 6 -17z m-337 -19 c15 0 15 2 2 10 -12 8 -10 10 8 10
13 0 21 -4 18 -9 -3 -5 1 -14 8 -21 8 -6 14 -24 14 -39 -1 -24 -7 -29 -45 -39
-58 -16 -106 -16 -100 1 2 6 10 12 18 12 8 1 25 8 39 17 14 8 33 20 44 25 17
10 17 10 -3 16 -13 3 -19 1 -14 -5 3 -7 1 -8 -5 -4 -7 4 -12 17 -11 29 0 12 3
16 6 10 2 -7 12 -13 21 -13z m-878 -1 c0 -11 -21 -11 -39 0 -9 6 -5 9 13 9 14
0 26 -4 26 -9z m1155 1 c3 -5 1 -10 -4 -10 -6 0 -11 5 -11 10 0 6 2 10 4 10 3
0 8 -4 11 -10z m-1605 -10 c0 -5 -5 -10 -11 -10 -5 0 -7 5 -4 10 3 6 8 10 11
10 2 0 4 -4 4 -10z m-210 -84 c0 -5 -13 3 -30 19 -16 16 -30 33 -30 39 0 5 14
-3 30 -19 17 -16 30 -33 30 -39z m1908 39 c3 -3 -4 -4 -16 -2 -12 2 -24 6 -28
10 -4 3 4 4 16 2 12 -2 25 -7 28 -10z m-1706 -17 c-7 -7 -12 -8 -12 -2 0 14
12 26 19 19 2 -3 -1 -11 -7 -17z m1693 -28 c3 -5 -1 -10 -10 -10 -10 0 -13 5
-9 12 5 8 2 9 -12 4 -10 -4 -15 -4 -11 0 4 4 -1 13 -11 21 -12 10 -9 10 15 -1
17 -9 35 -20 38 -26z m-109 -11 c4 -7 -2 -9 -17 -7 -13 2 -25 11 -27 21 -3 16
-1 17 17 8 11 -6 23 -16 27 -22z m37 12 c-2 -6 5 -11 16 -11 37 0 92 -30 89
-48 -6 -28 -59 -15 -93 23 -33 37 -43 60 -23 52 7 -2 12 -10 11 -16z m-383
-21 c0 -5 -13 -10 -30 -10 -16 0 -30 5 -30 10 0 6 14 10 30 10 17 0 30 -4 30
-10z m-1480 -47 c0 -46 8 -91 25 -142 4 -15 4 -21 -3 -17 -20 12 -50 206 -31
206 5 0 9 -21 9 -47z m1590 17 c0 -20 -5 -30 -15 -30 -8 0 -15 4 -15 9 0 5 -9
13 -20 16 -30 10 -24 23 13 28 17 2 33 5 35 5 1 1 2 -11 2 -28z m-734 -19 c-8
-12 -46 -15 -46 -5 0 4 8 13 18 20 18 14 39 3 28 -15z m132 -6 c-3 -3 -9 2
-12 12 -6 14 -5 15 5 6 7 -7 10 -15 7 -18z m682 10 c0 -3 -14 -14 -31 -24
l-31 -19 22 -15 c36 -25 15 -37 -32 -19 -39 15 -40 17 -17 23 l24 7 -25 2
c-21 1 -17 5 25 25 52 24 65 28 65 20z m-974 -15 c17 0 24 -6 24 -20 0 -12 10
-25 25 -32 27 -12 26 -23 -5 -31 -11 -3 -18 -1 -15 3 7 12 -6 41 -16 35 -4 -3
-13 4 -19 15 -6 11 -17 20 -25 20 -18 0 -20 -16 -2 -23 6 -3 1 -6 -12 -6 -17
-1 -22 3 -17 15 3 9 6 20 6 26 0 6 7 7 16 4 9 -3 27 -6 40 -6z m-762 -54 c9
-19 16 -45 16 -58 -1 -20 -4 -18 -25 17 -24 38 -34 92 -16 81 5 -3 16 -21 25
-40z m963 38 c-3 -3 -12 -4 -19 -1 -8 3 -5 6 6 6 11 1 17 -2 13 -5z m-576 -97
c-16 -16 -25 -1 -10 16 8 8 16 11 18 5 2 -5 -2 -15 -8 -21z m678 7 c3 -3 -3
-12 -12 -21 -16 -16 -17 -16 -17 0 0 9 -4 17 -10 17 -5 0 -10 5 -10 11 0 9 37
4 49 -7z m-1009 -18 c0 -8 7 -19 15 -26 9 -7 13 -15 11 -18 -8 -7 24 -63 55
-96 25 -26 39 -66 25 -66 -10 0 -56 48 -56 57 0 6 -16 45 -35 87 -38 84 -40
90 -25 81 6 -3 10 -12 10 -19z m1050 20 c0 -3 -4 -8 -10 -11 -5 -3 -10 -1 -10
4 0 6 5 11 10 11 6 0 10 -2 10 -4z m957 -42 c-7 -7 -37 7 -37 17 0 6 9 5 21
-1 11 -7 19 -14 16 -16z m-1043 -6 c-5 -7 -2 -9 8 -5 9 3 24 -1 35 -9 10 -9
12 -12 4 -8 -10 5 -13 3 -8 -9 4 -12 0 -15 -21 -15 -47 1 -74 -12 -69 -33 7
-25 -6 -31 -62 -34 -44 -2 -111 20 -111 37 0 4 28 8 63 9 44 0 56 3 42 9 l-20
9 20 1 c11 0 31 9 44 19 14 10 30 17 36 15 7 -3 18 2 25 11 15 18 24 20 14 3z
m-494 -53 c0 -8 5 -15 10 -15 6 0 10 -4 10 -9 0 -5 -9 -7 -20 -4 -20 5 -29 43
-10 43 6 0 10 -7 10 -15z m-575 -45 c19 -8 19 -9 -2 -9 -12 -1 -25 4 -28 9 -7
12 2 12 30 0z m625 -10 c12 -8 11 -10 -7 -10 -13 0 -23 5 -23 10 0 13 11 13
30 0z m230 -30 l0 -30 27 17 c15 10 24 13 20 6 -5 -7 6 -16 30 -24 38 -12 73
-40 73 -58 0 -5 6 -11 14 -14 7 -3 13 0 13 6 -1 46 3 52 19 22 8 -16 11 -31 6
-33 -12 -4 -77 -52 -71 -53 31 -6 57 -5 73 3 10 6 16 6 13 1 -3 -5 3 -17 15
-27 12 -11 17 -21 11 -25 -14 -8 -12 -41 2 -41 6 0 16 -5 23 -12 9 -9 6 -14
-11 -23 -15 -8 -21 -19 -19 -35 3 -29 -16 -80 -30 -80 -5 0 -8 10 -7 23 4 31
-9 64 -27 71 -23 9 -29 -23 -8 -39 18 -14 18 -14 -1 -15 -11 0 -29 6 -40 13
-36 25 -63 26 -82 4 -10 -11 -13 -17 -7 -14 13 8 24 -22 24 -67 0 -21 4 -27
15 -22 8 3 15 2 15 -3 0 -5 16 -12 36 -16 20 -3 34 -8 31 -11 -6 -7 -105 16
-141 32 l-31 15 34 -7 c23 -4 31 -3 27 5 -4 6 -16 11 -27 11 -16 0 -19 4 -14
21 5 14 3 19 -4 15 -6 -4 -19 -2 -30 3 -15 8 -20 7 -25 -5 -7 -17 -26 -10 -26
10 0 7 7 21 15 32 14 18 15 18 9 0 -6 -16 -5 -17 15 -6 19 10 26 9 42 -6 10
-9 19 -12 19 -7 0 6 -7 14 -16 17 -8 3 -12 11 -8 17 5 8 8 8 14 0 5 -9 10 -8
20 4 10 12 10 15 -4 15 -13 0 -15 6 -10 28 7 25 6 26 -11 12 -17 -14 -18 -13
-12 17 8 42 -6 50 -32 17 -35 -45 -36 -18 -2 37 21 34 29 55 22 62 -6 6 -15
-2 -25 -22 -9 -17 -21 -31 -26 -31 -6 0 -10 -9 -10 -20 0 -13 -10 -24 -25 -30
-14 -5 -25 -14 -25 -20 0 -5 -7 -10 -15 -10 -25 0 -14 33 14 42 12 3 12 6 -2
11 -13 5 -20 0 -27 -19 -9 -23 -12 -25 -28 -13 -59 46 -103 116 -81 130 10 6
10 13 1 34 -7 15 -10 36 -7 46 7 21 5 22 -19 13 -9 -3 -13 -10 -10 -15 9 -16
-23 -10 -36 7 -18 21 13 55 32 36 7 -7 20 -12 30 -12 10 0 18 -4 18 -9 0 -5 8
-12 18 -14 11 -3 9 -5 -8 -6 -14 -1 -20 -5 -14 -9 6 -4 16 -16 23 -27 11 -19
11 -18 5 5 l-7 24 28 -18 c30 -20 29 -21 9 29 -10 25 55 19 83 -7 13 -12 23
-16 23 -10 0 7 9 12 21 12 16 0 19 4 14 21 -6 18 -4 20 13 15 14 -5 21 -1 25
14 8 31 27 24 27 -10z m712 5 c-2 -14 -8 -28 -13 -31 -5 -3 -7 2 -4 10 3 9 7
23 10 31 7 24 13 17 7 -10z m-1676 -1 c-9 -8 -20 -12 -26 -9 -5 3 -20 -1 -32
-9 -12 -9 -19 -16 -14 -16 5 0 2 -7 -5 -17 -13 -15 -12 -15 9 -4 12 6 22 9 22
6 0 -13 -6 -20 -14 -17 -5 2 -12 -1 -15 -7 -4 -6 -13 -4 -24 4 -17 12 -16 15
13 43 27 28 46 36 88 41 10 1 9 -3 -2 -15z m1127 -4 c5 0 6 -4 3 -9 -5 -8 -29
-6 -85 5 -18 4 -21 8 -12 13 7 5 29 5 50 0 20 -5 40 -9 44 -9z m-1064 1 c13
-9 9 -13 -19 -23 -11 -4 -16 1 -17 13 -2 20 13 24 36 10z m1131 -17 c0 -8 -10
-14 -25 -14 -27 0 -32 9 -14 27 14 14 39 6 39 -13z m-1202 -69 c-3 -3 -9 2
-12 12 -6 14 -5 15 5 6 7 -7 10 -15 7 -18z m-14 -41 c3 -8 2 -12 -4 -9 -6 3
-10 10 -10 16 0 14 7 11 14 -7z m537 -61 c13 -16 12 -17 -3 -4 -10 7 -18 15
-18 17 0 8 8 3 21 -13z m1455 -10 c-2 -9 -8 -19 -14 -21 -16 -5 -15 25 1 31 6
3 13 6 14 6 1 1 0 -7 -1 -16z m-711 -14 c-4 -5 1 -19 11 -30 16 -18 16 -19 0
-19 -9 0 -15 4 -11 9 3 5 -4 16 -15 24 -20 14 -17 27 7 27 8 0 11 -5 8 -11z
m549 -5 c20 -8 11 -24 -15 -24 -10 0 -19 7 -19 15 0 16 9 19 34 9z m-16 -44
c17 -14 31 -31 31 -38 1 -8 10 -12 24 -11 12 2 28 0 35 -5 7 -4 19 -2 27 4 12
10 18 10 30 0 8 -7 15 -9 15 -5 0 4 6 2 13 -4 8 -6 17 -8 20 -4 4 3 7 1 7 -6
0 -7 -9 -9 -27 -5 -26 7 -27 6 -13 -11 10 -13 11 -16 2 -11 -10 6 -13 3 -11
-10 3 -20 -17 -64 -35 -77 -6 -5 0 -5 14 -1 27 7 42 23 34 36 -3 4 7 3 22 -2
15 -6 36 -8 48 -4 34 10 166 76 172 85 3 5 10 9 15 9 22 0 -5 -22 -63 -51 -78
-39 -199 -84 -298 -109 -77 -20 -146 -27 -82 -9 18 5 30 14 27 20 -4 5 -11 7
-16 4 -13 -9 -11 9 3 23 9 9 9 15 -1 25 -10 8 -12 8 -7 0 8 -14 -10 -27 -19
-13 -9 15 -38 13 -29 -2 5 -10 4 -10 -6 -1 -15 14 -6 32 18 32 9 0 29 2 44 4
25 4 27 2 22 -20 -8 -32 19 -21 35 15 10 20 14 23 21 12 7 -11 10 -7 15 13 4
15 13 27 21 27 10 0 11 -6 3 -26 -14 -40 -2 -42 14 -3 13 33 13 34 -10 37 -12
2 -23 8 -23 13 0 5 -10 9 -22 8 -13 0 -17 -3 -10 -6 18 -7 15 -23 -5 -23 -56
0 -143 65 -143 107 0 19 56 8 88 -17z m547 10 c-3 -5 -12 -10 -18 -10 -7 0 -6
4 3 10 19 12 23 12 15 0z m-647 -48 c-11 -13 -10 -15 3 -10 17 7 47 -7 37 -17
-3 -3 -16 -7 -28 -8 -15 -1 -35 -20 -62 -59 -21 -32 -43 -58 -48 -58 -16 0
-12 36 5 50 9 7 14 18 12 24 -2 6 5 15 16 21 22 11 31 41 16 51 -17 10 -9 33
14 36 32 6 51 -10 35 -30z m-952 9 c-17 -19 -56 -18 -56 1 0 6 7 8 15 5 8 -4
17 -2 20 3 4 6 13 10 22 10 14 0 14 -2 -1 -19z m564 9 c0 -14 -35 -30 -67 -30
l-28 0 25 20 c26 20 70 27 70 10z m-393 -15 c7 -21 0 -27 -37 -30 -17 -1 -33
-5 -36 -8 -4 -3 -15 0 -25 6 -17 11 -14 14 28 28 63 22 63 22 70 4z m376 -59
c10 10 47 -7 47 -21 0 -10 9 -12 35 -8 40 6 48 -10 14 -28 -15 -8 -18 -14 -10
-22 6 -6 11 -27 11 -47 1 -31 2 -33 14 -17 17 22 25 22 23 -3 -2 -29 -72 -29
-80 0 -3 11 -1 23 4 26 20 12 8 26 -18 20 -17 -5 -29 -3 -34 6 -4 7 -11 9 -16
5 -4 -5 -1 -12 6 -17 8 -4 11 -15 8 -23 -4 -10 1 -17 11 -20 10 -3 7 -5 -8 -5
-34 -1 -112 15 -82 17 21 1 23 5 17 31 -9 39 22 125 40 110 6 -5 14 -7 18 -4z
m-440 -10 c1 -5 -8 -11 -20 -12 -23 -4 -30 6 -16 20 9 9 33 4 36 -8z m2 -34
c-3 -3 -11 0 -18 7 -9 10 -8 11 6 5 10 -3 15 -9 12 -12z m847 -9 c-6 -2 -10
-9 -7 -13 3 -5 1 -11 -4 -14 -7 -5 -8 11 -2 32 1 1 7 2 14 1 9 0 9 -2 -1 -6z
m-767 -13 c13 -5 14 -9 5 -9 -8 0 -24 4 -35 9 -13 5 -14 9 -5 9 8 0 24 -4 35
-9z m195 -10 c0 -11 -4 -20 -9 -20 -14 0 -23 18 -16 30 10 17 25 11 25 -10z
m598 -77 c-10 -2 -28 -2 -40 0 -13 2 -5 4 17 4 22 1 32 -1 23 -4z m-258 -13
c0 -5 -4 -10 -10 -10 -5 0 -10 5 -10 10 0 6 5 10 10 10 6 0 10 -4 10 -10z
m189 6 c-9 -8 -139 -13 -139 -5 0 5 32 9 72 9 39 0 69 -2 67 -4z"/>
<path d="M840 994 c0 -5 7 -18 15 -28 8 -11 15 -16 15 -10 0 5 -7 18 -15 28
-8 11 -15 16 -15 10z"/>
<path d="M1470 819 c0 -5 5 -7 10 -4 6 3 10 8 10 11 0 2 -4 4 -10 4 -5 0 -10
-5 -10 -11z"/>
<path d="M1167 668 c-4 -14 -1 -29 9 -38 13 -13 14 -13 9 2 -4 11 -1 17 10 20
15 3 15 5 -3 21 -19 17 -20 17 -25 -5z"/>
<path d="M1385 610 c3 -5 8 -10 11 -10 2 0 4 5 4 10 0 6 -5 10 -11 10 -5 0 -7
-4 -4 -10z"/>
<path d="M1435 610 c3 -5 8 -10 11 -10 2 0 4 5 4 10 0 6 -5 10 -11 10 -5 0 -7
-4 -4 -10z"/>
<path d="M1157 593 c-11 -10 -8 -61 3 -68 6 -4 7 6 4 24 -6 30 -6 30 30 26 25
-4 35 -2 30 6 -3 6 -15 9 -25 6 -11 -3 -19 -1 -19 4 0 11 -14 12 -23 2z"/>
<path d="M1406 579 c4 -7 -5 -10 -27 -8 -23 2 -33 -1 -31 -9 1 -7 -3 -12 -9
-12 -5 0 -3 -13 7 -29 16 -28 19 -28 40 -14 21 13 25 13 45 -6 26 -24 48 -29
29 -6 -6 8 -9 19 -5 25 7 12 -31 70 -46 70 -6 0 -7 -5 -3 -11z m-36 -60 c0 -6
-4 -7 -10 -4 -5 3 -10 11 -10 16 0 6 5 7 10 4 6 -3 10 -11 10 -16z"/>
<path d="M1496 545 c4 -8 15 -15 26 -15 17 0 18 2 4 15 -8 8 -19 15 -25 15 -6
0 -8 -7 -5 -15z"/>
<path d="M1560 1326 c0 -8 4 -17 9 -20 10 -7 23 19 14 28 -11 11 -23 6 -23 -8z"/>
<path d="M1647 1224 c-12 -16 -14 -24 -5 -24 9 0 9 -3 0 -12 -14 -14 -16 -38
-2 -38 5 0 7 6 4 14 -3 8 3 19 15 26 20 10 29 44 14 53 -5 3 -16 -6 -26 -19z"/>
<path d="M1555 1179 c-6 -19 0 -38 9 -28 10 12 16 49 7 49 -5 0 -13 -9 -16
-21z"/>
<path d="M1277 1107 c-3 -8 3 -14 15 -14 16 -2 17 1 8 13 -15 17 -17 17 -23 1z"/>
<path d="M1335 1100 c27 -12 43 -12 25 0 -8 5 -22 9 -30 9 -10 0 -8 -3 5 -9z"/>
<path d="M1700 1069 c-13 -8 -13 -10 0 -19 27 -18 39 -9 22 17 -5 8 -12 9 -22
2z"/>
<path d="M1016 1045 c-3 -8 -1 -15 4 -15 6 0 10 7 10 15 0 8 -2 15 -4 15 -2 0
-6 -7 -10 -15z"/>
<path d="M1740 1021 c0 -6 4 -13 10 -16 6 -3 7 1 4 9 -7 18 -14 21 -14 7z"/>
<path d="M1906 993 c4 -15 8 -29 9 -30 1 -2 16 3 33 9 35 13 46 44 12 33 -10
-3 -29 -1 -40 5 -19 10 -20 9 -14 -17z"/>
<path d="M1760 980 c0 -5 5 -10 11 -10 5 0 7 5 4 10 -3 6 -8 10 -11 10 -2 0
-4 -4 -4 -10z"/>
<path d="M1845 969 c-4 -6 -5 -13 -2 -16 7 -7 27 6 27 18 0 12 -17 12 -25 -2z"/>
<path d="M1969 941 l-23 -18 30 -5 c27 -4 30 -2 26 19 -5 28 -4 28 -33 4z"/>
<path d="M2405 814 c9 -9 19 -13 23 -10 3 4 0 11 -8 16 -24 15 -33 11 -15 -6z"/>
<path d="M2190 768 c0 -3 9 -6 20 -5 11 1 20 5 20 9 0 3 -9 6 -20 5 -11 -1
-20 -5 -20 -9z"/>
<path d="M2600 750 c0 -5 4 -10 9 -10 5 0 18 -3 28 -6 16 -5 16 -4 -1 10 -23
18 -36 20 -36 6z"/>
<path d="M2535 710 c-3 -5 -1 -10 4 -10 6 0 11 5 11 10 0 6 -2 10 -4 10 -3 0
-8 -4 -11 -10z"/>
<path d="M2490 685 c0 -16 -6 -25 -15 -25 -8 0 -15 -7 -15 -15 0 -18 20 -20
21 -2 1 6 5 1 9 -13 6 -20 8 -14 9 28 1 28 -1 52 -4 52 -3 0 -5 -11 -5 -25z"/>
<path d="M2647 683 c-22 -6 -12 -23 14 -23 10 0 19 7 19 15 0 15 -2 16 -33 8z"/>
<path d="M2400 619 c0 -11 -5 -30 -11 -41 -10 -18 -9 -20 6 -15 9 4 29 7 43 7
l27 1 -25 14 c-21 12 -22 14 -6 15 18 0 18 1 1 20 -23 26 -35 25 -35 -1z"/>
<path d="M2720 610 c0 -11 7 -20 15 -20 8 0 15 9 15 20 0 11 -7 20 -15 20 -8
0 -15 -9 -15 -20z"/>
<path d="M2557 570 c3 -11 7 -20 9 -20 2 0 4 9 4 20 0 11 -4 20 -9 20 -5 0 -7
-9 -4 -20z"/>
</g>
</svg>
